<?xml version="1.0" standalone="no"?>
<!DOCTYPE svg PUBLIC "-//W3C//DTD SVG 20010904//EN"
 "http://www.w3.org/TR/2001/REC-SVG-20010904/DTD/svg10.dtd">
<svg version="1.0" xmlns="http://www.w3.org/2000/svg"
 width="512.000000pt" height="512.000000pt" viewBox="0 0 512.000000 512.000000"
 preserveAspectRatio="xMidYMid meet">

<g transform="translate(0.000000,512.000000) scale(0.100000,-0.100000)"
fill="#000000" stroke="none">
<path d="M588 5104 c-36 -19 -48 -43 -48 -95 0 -54 377 -3963 390 -4045 28
-174 91 -355 162 -464 104 -161 299 -355 423 -422 145 -79 61 -73 1000 -76
573 -2 856 1 891 8 127 27 313 147 444 288 216 230 295 420 339 817 40 354
391 3854 391 3895 0 52 -13 76 -50 95 -26 13 -258 15 -1972 15 -1695 -1 -1946
-3 -1970 -16z m3782 -207 c0 -45 -381 -3793 -395 -3887 -17 -116 -56 -254 -96
-337 -37 -78 -150 -224 -226 -293 -80 -73 -196 -147 -256 -165 -43 -13 -169
-15 -852 -15 -889 0 -855 -2 -957 66 -102 69 -280 259 -341 364 -64 110 -108
275 -132 495 -16 150 -365 3764 -365 3783 0 9 437 12 1810 12 l1810 0 0 -23z"/>
</g>
</svg>
